<?xml version="1.0" encoding="UTF-8"?>
<svg width="109px" height="107px" viewBox="0 0 109 107" version="1.1" xmlns="http://www.w3.org/2000/svg" xmlns:xlink="http://www.w3.org/1999/xlink">
    <!-- Generator: Sketch 60.1 (88133) - https://sketch.com -->
    <title>index_icon_ Child device</title>
    <desc>Created with Sketch.</desc>
    <defs>
        <linearGradient x1="74.1765254%" y1="72.3836249%" x2="28.993729%" y2="26.9954334%" id="linearGradient-1">
            <stop stop-color="#FF3A2E" offset="0%"></stop>
            <stop stop-color="#FF855C" offset="100%"></stop>
        </linearGradient>
        <linearGradient x1="74.1765254%" y1="58.058105%" x2="28.993729%" y2="41.718356%" id="linearGradient-2">
            <stop stop-color="#FF3A2E" offset="0%"></stop>
            <stop stop-color="#FF855C" offset="100%"></stop>
        </linearGradient>
        <linearGradient x1="100%" y1="50%" x2="0%" y2="50%" id="linearGradient-3">
            <stop stop-color="#FC4E44" offset="0%"></stop>
            <stop stop-color="#FF936E" offset="100%"></stop>
        </linearGradient>
        <linearGradient x1="74.1765254%" y1="60.4056107%" x2="28.993729%" y2="39.3057283%" id="linearGradient-4">
            <stop stop-color="#FF3A2E" offset="0%"></stop>
            <stop stop-color="#FF855C" offset="100%"></stop>
        </linearGradient>
        <linearGradient x1="100%" y1="50%" x2="0%" y2="50%" id="linearGradient-5">
            <stop stop-color="#FC4E44" offset="0%"></stop>
            <stop stop-color="#FF936E" offset="100%"></stop>
        </linearGradient>
    </defs>
    <g id="用户后台" stroke="none" stroke-width="1" fill="none" fill-rule="evenodd">
        <g id="首页_无异常" transform="translate(-599.000000, -176.000000)">
            <g id="编组-2备份-24" transform="translate(426.000000, 176.000000)">
                <g id="index_icon_-Child-device" transform="translate(173.000000, 0.000000)">
                    <circle id="椭圆形" stroke="" stroke-width="1.2" opacity="0.78734189" cx="42" cy="36" r="23.4"></circle>
                    <circle id="椭圆形" fill="url(#linearGradient-1)" cx="31" cy="16" r="2"></circle>
                    <circle id="椭圆形备份-10" fill="url(#linearGradient-1)" cx="43" cy="59" r="2"></circle>
                    <circle id="椭圆形备份-7" stroke="" stroke-width="1.2" opacity="0.78734189" cx="24" cy="66" r="23.4"></circle>
                    <circle id="椭圆形备份-8" stroke="" stroke-width="1.2" opacity="0.78734189" cx="58" cy="66" r="23.4"></circle>
                    <circle id="椭圆形备份-6" fill="url(#linearGradient-1)" cx="29" cy="88" r="3"></circle>
                    <circle id="椭圆形备份-9" fill="url(#linearGradient-1)" cx="74" cy="49" r="2"></circle>
                    <g id="编组-7" transform="translate(56.000000, 60.000000)">
                        <path d="M2.99107304,8.2368 L9.68092696,8.2368 C9.95364766,8.2368 10.1957708,8.41131251 10.2820127,8.67003809 L12.3940127,15.0060381 C12.5046695,15.3380086 12.3252594,15.6968289 11.9932889,15.8074857 C11.9286829,15.8290211 11.8610276,15.84 11.792927,15.84 L0.879073042,15.84 C0.529145424,15.84 0.245473042,15.5563276 0.245473042,15.2064 C0.245473042,15.1382993 0.256451986,15.070644 0.277987304,15.0060381 L2.3899873,8.67003809 C2.47622916,8.41131251 2.71835234,8.2368 2.99107304,8.2368 Z" id="矩形" fill="url(#linearGradient-2)"></path>
                        <circle id="椭圆形" stroke="#FFFFFF" stroke-width="1.9008" fill="url(#linearGradient-1)" cx="6.336" cy="6.336" r="6.336"></circle>
                        <circle id="椭圆形备份-5" fill="#FFFFFF" cx="6.336" cy="6.336" r="2.5344"></circle>
                    </g>
                    <g id="编组-7" transform="translate(33.000000, 22.000000)">
                        <circle id="椭圆形" fill="url(#linearGradient-1)" cx="8.81861582" cy="8.64" r="5.184"></circle>
                        <rect id="矩形" fill="url(#linearGradient-3)" x="5.93861582" y="14.976" width="5.76" height="1.152" rx="0.576"></rect>
                        <rect id="矩形备份-4" fill="#FF3A2F" transform="translate(8.818616, 1.152000) rotate(-270.000000) translate(-8.818616, -1.152000) " x="7.66661582" y="0.576" width="2.304" height="1.152" rx="0.576"></rect>
                        <rect id="矩形备份-4" fill="#FF3A2F" transform="translate(13.446687, 2.836480) rotate(-230.000000) translate(-13.446687, -2.836480) " x="12.2946866" y="2.26048001" width="2.304" height="1.152" rx="0.576"></rect>
                        <rect id="矩形备份-4" fill="#FF3A2F" transform="translate(15.909232, 7.101733) rotate(-190.000000) translate(-15.909232, -7.101733) " x="14.7572316" y="6.52573312" width="2.304" height="1.152" rx="0.576"></rect>
                        <rect id="矩形备份-4" fill="#FF7D57" transform="translate(1.728000, 7.101733) rotate(10.000000) translate(-1.728000, -7.101733) " x="0.576" y="6.52573312" width="2.304" height="1.152" rx="0.576"></rect>
                        <rect id="矩形备份-4" fill="#FF7D57" transform="translate(4.190545, 2.836480) rotate(50.000000) translate(-4.190545, -2.836480) " x="3.03854503" y="2.26048001" width="2.304" height="1.152" rx="0.576"></rect>
                    </g>
                    <g id="编组-14备份" transform="translate(14.000000, 63.000000)">
                        <rect id="矩形" fill="url(#linearGradient-4)" x="0" y="0" width="13.9392" height="9.504" rx="1.2672"></rect>
                        <rect id="矩形备份-7" fill="url(#linearGradient-5)" x="4.4352" y="10.7712" width="5.0688" height="1.2672" rx="0.6336"></rect>
                    </g>
                </g>
            </g>
        </g>
    </g>
</svg>