<?xml version="1.0" encoding="UTF-8"?>
<svg width="99px" height="107px" viewBox="0 0 99 107" version="1.1" xmlns="http://www.w3.org/2000/svg" xmlns:xlink="http://www.w3.org/1999/xlink">
    <!-- Generator: Sketch 60.1 (88133) - https://sketch.com -->
    <title>index_icon_ Total equipment online</title>
    <desc>Created with Sketch.</desc>
    <defs>
        <linearGradient x1="74.1765254%" y1="60.9679762%" x2="28.993729%" y2="38.7277623%" id="linearGradient-1">
            <stop stop-color="#FF3A2E" offset="0%"></stop>
            <stop stop-color="#FF855C" offset="100%"></stop>
        </linearGradient>
        <linearGradient x1="100%" y1="50%" x2="0%" y2="50%" id="linearGradient-2">
            <stop stop-color="#FF936E" offset="0%"></stop>
            <stop stop-color="#FC4E44" offset="100%"></stop>
        </linearGradient>
        <circle id="path-3" cx="41.5" cy="53.5" r="18.5"></circle>
        <mask id="mask-4" maskContentUnits="userSpaceOnUse" maskUnits="objectBoundingBox" x="0" y="0" width="37" height="37" fill="white">
            <use xlink:href="#path-3"></use>
        </mask>
        <circle id="path-5" cx="41" cy="54" r="24"></circle>
        <mask id="mask-6" maskContentUnits="userSpaceOnUse" maskUnits="objectBoundingBox" x="0" y="0" width="48" height="48" fill="white">
            <use xlink:href="#path-5"></use>
        </mask>
        <linearGradient x1="74.1765254%" y1="68.4988635%" x2="28.993729%" y2="30.9879614%" id="linearGradient-7">
            <stop stop-color="#FF3A2E" offset="0%"></stop>
            <stop stop-color="#FF855C" offset="100%"></stop>
        </linearGradient>
        <linearGradient x1="74.1765254%" y1="72.3836249%" x2="28.993729%" y2="26.9954334%" id="linearGradient-8">
            <stop stop-color="#FF3A2E" offset="0%"></stop>
            <stop stop-color="#FF855C" offset="100%"></stop>
        </linearGradient>
    </defs>
    <g id="用户后台" stroke="none" stroke-width="1" fill="none" fill-rule="evenodd">
        <g id="首页_无异常" transform="translate(-915.000000, -176.000000)">
            <g id="编组-2备份-25" transform="translate(732.000000, 176.000000)">
                <g id="编组-2">
                    <g id="index_icon_-Total-equipment-online" transform="translate(183.000000, 0.000000)">
                        <path d="M45.987139,45 C46.6199734,45 47.1457745,45.4879255 47.1929975,46.1189955 L47.299,47.545 L48.2352,47.5454545 C49.7621569,47.5454545 51,48.7832977 51,50.3102545 L51,56.2352 C51,57.7621569 49.7621569,59 48.2352,59 L33.7648,59 C32.2378431,59 31,57.7621569 31,56.2352 L31,50.3102545 C31,48.7832977 32.2378431,47.5454545 33.7648,47.5454545 L44.674,47.545 L44.7812806,46.1189955 C44.8285035,45.4879255 45.3543046,45 45.987139,45 Z M35.2857143,52.6363636 C34.4967361,52.6363636 33.8571429,53.206183 33.8571429,53.9090909 C33.8571429,54.6119988 34.4967361,55.1818182 35.2857143,55.1818182 C36.0746925,55.1818182 36.7142857,54.6119988 36.7142857,53.9090909 C36.7142857,53.206183 36.0746925,52.6363636 35.2857143,52.6363636 Z M41,52.6363636 C40.2110218,52.6363636 39.5714286,53.206183 39.5714286,53.9090909 C39.5714286,54.6119988 40.2110218,55.1818182 41,55.1818182 C41.7889782,55.1818182 42.4285714,54.6119988 42.4285714,53.9090909 C42.4285714,53.206183 41.7889782,52.6363636 41,52.6363636 Z" id="形状结合" fill="url(#linearGradient-1)"></path>
                        <use id="椭圆形" stroke="url(#linearGradient-2)" mask="url(#mask-4)" stroke-width="2" opacity="0.182454427" stroke-dasharray="2" xlink:href="#path-3"></use>
                        <use id="椭圆形备份-2" stroke="url(#linearGradient-2)" mask="url(#mask-6)" stroke-width="2" opacity="0.437486061" stroke-dasharray="2" xlink:href="#path-5"></use>
                        <circle id="椭圆形备份-3" stroke="url(#linearGradient-2)" cx="41" cy="54" r="35.5"></circle>
                        <circle id="椭圆形备份-4" stroke="url(#linearGradient-2)" opacity="0.441355121" cx="41" cy="54" r="31.5"></circle>
                        <rect id="矩形" fill="url(#linearGradient-7)" transform="translate(51.500000, 20.000000) rotate(18.000000) translate(-51.500000, -20.000000) " x="46" y="15" width="11" height="10" rx="5"></rect>
                        <rect id="矩形备份-6" fill="url(#linearGradient-8)" x="62" y="48.5" width="4" height="4" rx="2"></rect>
                        <rect id="矩形备份-7" fill="url(#linearGradient-8)" x="31" y="74" width="4" height="4" rx="2"></rect>
                        <rect id="矩形备份-8" fill="url(#linearGradient-8)" x="21" y="35" width="4" height="4" rx="2"></rect>
                        <rect id="矩形备份-2" fill="url(#linearGradient-7)" x="60" y="74.5" width="11" height="10" rx="5"></rect>
                        <rect id="矩形备份-5" fill="url(#linearGradient-7)" x="0" y="55.5" width="11" height="10" rx="5"></rect>
                    </g>
                </g>
            </g>
        </g>
    </g>
</svg>